<?xml version="1.0" standalone="no"?>
<!DOCTYPE svg PUBLIC "-//W3C//DTD SVG 20010904//EN"
 "http://www.w3.org/TR/2001/REC-SVG-20010904/DTD/svg10.dtd">
<svg version="1.0" xmlns="http://www.w3.org/2000/svg"
 width="157.000000pt" height="157.000000pt" viewBox="0 0 157.000000 157.000000"
 preserveAspectRatio="xMidYMid meet">
<metadata>
Created by potrace 1.14, written by Peter Selinger 2001-2017
</metadata>
<g transform="translate(0.000000,157.000000) scale(0.100000,-0.100000)"
fill="#000000" stroke="none">
<path d="M490 1411 l-71 -78 -143 0 c-160 0 -186 -8 -233 -70 l-28 -36 -1
-505 c-1 -497 0 -506 21 -546 13 -25 36 -48 62 -62 41 -21 42 -21 705 -20
l664 1 36 25 c71 48 68 21 68 596 l0 517 -26 34 c-43 57 -69 64 -230 65 l-145
1 -71 79 -70 78 -233 0 -233 0 -72 -79z m490 -91 c8 -9 39 -45 69 -79 l53 -61
158 0 157 0 -1 -462 -1 -463 -610 -1 c-335 0 -614 1 -620 3 -6 2 -10 158 -9
446 1 243 2 450 3 460 1 15 15 17 156 17 l154 0 26 28 c15 15 47 50 72 79 l46
51 166 0 c145 0 167 -2 181 -18z"/>
<path d="M718 1094 c-297 -59 -411 -432 -197 -646 185 -185 501 -138 621 95
86 167 38 372 -111 482 -89 65 -206 91 -313 69z m198 -190 c233 -144 62 -494
-197 -403 -201 71 -201 351 -1 426 59 21 142 12 198 -23z"/>
</g>
</svg>
